<svg xmlns="http://www.w3.org/2000/svg" xmlns:xlink="http://www.w3.org/1999/xlink" width="500" zoomAndPan="magnify" viewBox="0 0 375 374.999991" height="500" preserveAspectRatio="xMidYMid meet" version="1.0"><defs><g/><clipPath id="16f31e57a5"><path d="M 52 27.007812 L 329 27.007812 L 329 301 L 52 301 Z M 52 27.007812 " clip-rule="nonzero"/></clipPath></defs><rect x="-37.5" width="450" fill="#ffffff" y="-37.499999" height="449.999989" fill-opacity="1"/><rect x="-37.5" width="450" fill="#ffffff" y="-37.499999" height="449.999989" fill-opacity="1"/><g clip-path="url(#16f31e57a5)"><path fill="#898462" d="M 150.832031 50.308594 L 150.832031 171 C 176.488281 141.472656 196.886719 118.195312 212.019531 100.484375 C 230.761719 78.519531 260.703125 77.53125 269.90625 106.058594 C 272.210938 119.183594 269.578125 132.957031 262.667969 144.753906 C 270.242188 120.824219 241.953125 105.082031 219.582031 125.742188 L 202.480469 142.136719 C 189.316406 156.238281 175.503906 165.753906 162.015625 170.664062 C 177.808594 171.980469 192.605469 181.15625 206.425781 197.222656 L 213.984375 207.394531 C 237.019531 187.066406 257.738281 178.867188 276.488281 182.472656 C 299.183594 185.753906 317.613281 201.167969 324.847656 222.15625 C 331.417969 241.503906 328.128906 262.492188 315.308594 278.558594 C 296.554688 301.511719 261.027344 310.039062 233.0625 288.726562 C 223.863281 282.164062 211.355469 263.808594 195.246094 233.300781 C 202.480469 225.101562 209.714844 217.886719 216.625 211.988281 C 216.953125 211.988281 216.953125 211.664062 217.277344 211.664062 L 236.03125 237.234375 C 246.21875 250.683594 256.097656 260.523438 265.960938 265.773438 C 281.09375 274.289062 297.871094 272.660156 310.039062 264.132812 C 343.925781 239.863281 315.960938 190.675781 276.488281 184.765625 C 258.0625 181.15625 237.671875 189.359375 214.972656 208.707031 C 208.0625 214.605469 200.828125 221.832031 193.59375 230.019531 C 192.277344 231.660156 190.636719 233.300781 189.316406 234.941406 C 176.488281 248.390625 163.328125 258.222656 150.832031 264.457031 C 145.566406 266.75 140.632812 268.714844 135.371094 270.03125 C 119.253906 274.289062 103.136719 272.660156 87.019531 265.4375 C 60.703125 251.335938 47.542969 221.492188 54.785156 192.964844 C 62.019531 164.113281 88 143.777344 117.605469 143.777344 C 117.9375 143.777344 118.265625 143.777344 118.597656 143.777344 L 118.597656 34.578125 L 96.558594 34.578125 L 96.558594 27.027344 L 150.832031 27.027344 Z M 118.59375 270.03125 L 118.59375 145.742188 L 118.265625 145.742188 C 89.320312 145.742188 64.320312 165.089844 57.414062 192.964844 C 50.175781 220.839844 63.003906 250.03125 88.332031 263.46875 C 98.527344 267.738281 108.398438 270.03125 118.59375 270.03125 Z M 192.605469 228.707031 C 190.304688 224.125 188.003906 219.527344 185.699219 214.605469 C 174.1875 192.640625 162.347656 180.179688 150.832031 176.898438 L 150.832031 261.828125 C 163.328125 255.929688 176.488281 246.089844 189.316406 232.652344 C 190.308594 231.335938 191.617188 229.695312 192.605469 228.707031 Z M 192.605469 228.707031 " fill-opacity="1" fill-rule="evenodd"/></g><g fill="#000000" fill-opacity="1"><g transform="translate(102.01866, 328.865983)"><g><path d="M 5.796875 -0.21875 L 6.078125 -0.21875 L 6.078125 0 L 1.3125 0 L 1.3125 -0.21875 L 1.59375 -0.21875 C 1.96875 -0.21875 2.289062 -0.351562 2.5625 -0.625 C 2.832031 -0.894531 2.972656 -1.21875 2.984375 -1.59375 L 2.984375 -13.671875 C 2.972656 -14.054688 2.832031 -14.378906 2.5625 -14.640625 C 2.289062 -14.898438 1.96875 -15.03125 1.59375 -15.03125 L 1.3125 -15.03125 L 1.3125 -15.25 L 6.078125 -15.25 L 6.078125 -15.03125 L 5.796875 -15.03125 C 5.421875 -15.03125 5.097656 -14.898438 4.828125 -14.640625 C 4.554688 -14.378906 4.414062 -14.054688 4.40625 -13.671875 L 4.40625 -1.59375 C 4.40625 -1.21875 4.539062 -0.894531 4.8125 -0.625 C 5.09375 -0.351562 5.421875 -0.21875 5.796875 -0.21875 Z M 14.546875 0 L 13.609375 0 C 12.128906 0 11.039062 -0.410156 10.34375 -1.234375 L 5.09375 -7.578125 L 10.234375 -14.03125 C 10.347656 -14.175781 10.40625 -14.304688 10.40625 -14.421875 C 10.40625 -14.535156 10.382812 -14.632812 10.34375 -14.71875 C 10.226562 -14.9375 10.019531 -15.046875 9.71875 -15.046875 L 9.5 -15.046875 L 9.5 -15.25 L 14.09375 -15.25 L 14.09375 -15.046875 L 14 -15.046875 C 13.039062 -15.046875 12.257812 -14.707031 11.65625 -14.03125 L 6.53125 -8.109375 L 12.484375 -1.109375 C 13.066406 -0.523438 13.753906 -0.226562 14.546875 -0.21875 Z M 14.546875 0 "/></g></g></g><g fill="#000000" fill-opacity="1"><g transform="translate(118.829003, 328.865983)"><g><path d="M 5.796875 -14.578125 L 4.40625 -14.578125 L 4.40625 -1.59375 C 4.40625 -1.21875 4.535156 -0.894531 4.796875 -0.625 C 5.066406 -0.351562 5.398438 -0.21875 5.796875 -0.21875 L 6.0625 -0.21875 L 6.078125 0 L 1.3125 0 L 1.3125 -0.21875 L 1.59375 -0.21875 C 1.96875 -0.21875 2.289062 -0.347656 2.5625 -0.609375 C 2.832031 -0.867188 2.972656 -1.1875 2.984375 -1.5625 L 2.984375 -13.65625 C 2.972656 -14.03125 2.832031 -14.351562 2.5625 -14.625 C 2.289062 -14.894531 1.96875 -15.03125 1.59375 -15.03125 L 1.3125 -15.03125 L 1.3125 -15.25 L 7.1875 -15.25 C 8.507812 -15.25 9.546875 -14.878906 10.296875 -14.140625 C 11.054688 -13.410156 11.4375 -12.460938 11.4375 -11.296875 C 11.4375 -10.128906 11.078125 -9.117188 10.359375 -8.265625 C 9.640625 -7.410156 8.765625 -6.984375 7.734375 -6.984375 C 7.953125 -6.890625 8.207031 -6.691406 8.5 -6.390625 C 8.800781 -6.097656 9.066406 -5.789062 9.296875 -5.46875 C 10.546875 -3.675781 11.359375 -2.570312 11.734375 -2.15625 C 12.117188 -1.75 12.390625 -1.46875 12.546875 -1.3125 C 12.703125 -1.164062 12.875 -1.019531 13.0625 -0.875 C 13.257812 -0.726562 13.453125 -0.609375 13.640625 -0.515625 C 14.054688 -0.316406 14.503906 -0.21875 14.984375 -0.21875 L 14.984375 0 L 13.78125 0 C 13.15625 0 12.570312 -0.109375 12.03125 -0.328125 C 11.5 -0.554688 11.097656 -0.789062 10.828125 -1.03125 C 10.566406 -1.269531 10.335938 -1.5 10.140625 -1.71875 C 9.941406 -1.945312 9.398438 -2.703125 8.515625 -3.984375 C 7.628906 -5.265625 7.113281 -5.992188 6.96875 -6.171875 C 6.820312 -6.359375 6.671875 -6.535156 6.515625 -6.703125 C 6.046875 -7.203125 5.582031 -7.453125 5.125 -7.453125 L 5.125 -7.671875 C 5.238281 -7.648438 5.390625 -7.640625 5.578125 -7.640625 C 5.765625 -7.640625 5.992188 -7.648438 6.265625 -7.671875 C 8.066406 -7.710938 9.203125 -8.46875 9.671875 -9.9375 C 9.753906 -10.226562 9.796875 -10.5 9.796875 -10.75 C 9.796875 -11 9.796875 -11.160156 9.796875 -11.234375 C 9.773438 -12.210938 9.523438 -13 9.046875 -13.59375 C 8.566406 -14.1875 7.914062 -14.503906 7.09375 -14.546875 C 6.75 -14.566406 6.316406 -14.578125 5.796875 -14.578125 Z M 5.796875 -14.578125 "/></g></g></g><g fill="#000000" fill-opacity="1"><g transform="translate(136.074816, 328.865983)"><g><path d="M 1.59375 -0.21875 C 1.96875 -0.21875 2.289062 -0.351562 2.5625 -0.625 C 2.832031 -0.894531 2.972656 -1.21875 2.984375 -1.59375 L 2.984375 -13.671875 C 2.972656 -14.054688 2.832031 -14.378906 2.5625 -14.640625 C 2.289062 -14.898438 1.96875 -15.03125 1.59375 -15.03125 L 1.3125 -15.03125 L 1.3125 -15.25 L 6.078125 -15.25 L 6.078125 -15.03125 L 5.796875 -15.03125 C 5.421875 -15.03125 5.097656 -14.898438 4.828125 -14.640625 C 4.554688 -14.378906 4.414062 -14.054688 4.40625 -13.671875 L 4.40625 -1.59375 C 4.40625 -1.21875 4.539062 -0.894531 4.8125 -0.625 C 5.09375 -0.351562 5.421875 -0.21875 5.796875 -0.21875 L 6.078125 -0.21875 L 6.078125 0 L 1.3125 0 L 1.3125 -0.21875 Z M 1.59375 -0.21875 "/></g></g></g><g fill="#000000" fill-opacity="1"><g transform="translate(145.939431, 328.865983)"><g><path d="M 1.328125 -0.890625 C 1.285156 -1.097656 1.265625 -1.488281 1.265625 -2.0625 C 1.265625 -2.644531 1.375 -3.265625 1.59375 -3.921875 L 1.78125 -3.921875 C 1.769531 -3.765625 1.765625 -3.601562 1.765625 -3.4375 C 1.765625 -2.550781 2.03125 -1.8125 2.5625 -1.21875 C 3.101562 -0.632812 3.816406 -0.34375 4.703125 -0.34375 C 5.617188 -0.34375 6.367188 -0.617188 6.953125 -1.171875 C 7.546875 -1.722656 7.84375 -2.414062 7.84375 -3.25 C 7.84375 -4.09375 7.554688 -4.773438 6.984375 -5.296875 L 2.8125 -9.171875 C 2.03125 -9.898438 1.640625 -10.78125 1.640625 -11.8125 C 1.640625 -12.84375 1.984375 -13.722656 2.671875 -14.453125 C 3.359375 -15.179688 4.289062 -15.546875 5.46875 -15.546875 C 6.019531 -15.546875 6.644531 -15.472656 7.34375 -15.328125 L 8.1875 -15.328125 L 8.1875 -12.65625 L 8 -12.65625 C 8 -13.332031 7.757812 -13.875 7.28125 -14.28125 C 6.8125 -14.6875 6.207031 -14.890625 5.46875 -14.890625 C 4.726562 -14.890625 4.109375 -14.644531 3.609375 -14.15625 C 3.109375 -13.664062 2.859375 -13.050781 2.859375 -12.3125 C 2.859375 -11.570312 3.144531 -10.929688 3.71875 -10.390625 L 8.015625 -6.421875 C 8.742188 -5.753906 9.109375 -4.835938 9.109375 -3.671875 C 9.109375 -2.515625 8.738281 -1.5625 8 -0.8125 C 7.257812 -0.0625 6.269531 0.3125 5.03125 0.3125 C 4.394531 0.3125 3.71875 0.210938 3 0.015625 C 2.28125 -0.179688 1.722656 -0.484375 1.328125 -0.890625 Z M 1.328125 -0.890625 "/></g></g></g><g fill="#000000" fill-opacity="1"><g transform="translate(158.787005, 328.865983)"><g><path d="M 11.921875 -0.21875 C 12.296875 -0.21875 12.613281 -0.347656 12.875 -0.609375 C 13.144531 -0.867188 13.289062 -1.1875 13.3125 -1.5625 L 13.3125 -7.203125 L 4.40625 -7.203125 L 4.40625 -1.59375 C 4.40625 -1.21875 4.539062 -0.894531 4.8125 -0.625 C 5.09375 -0.351562 5.421875 -0.21875 5.796875 -0.21875 L 6.078125 -0.21875 L 6.078125 0 L 1.3125 0 L 1.3125 -0.21875 L 1.59375 -0.21875 C 1.96875 -0.21875 2.289062 -0.351562 2.5625 -0.625 C 2.832031 -0.894531 2.972656 -1.21875 2.984375 -1.59375 L 2.984375 -13.671875 C 2.972656 -14.054688 2.832031 -14.378906 2.5625 -14.640625 C 2.289062 -14.898438 1.96875 -15.03125 1.59375 -15.03125 L 1.3125 -15.03125 L 1.3125 -15.25 L 6.078125 -15.25 L 6.078125 -15.03125 L 5.796875 -15.03125 C 5.421875 -15.03125 5.097656 -14.898438 4.828125 -14.640625 C 4.554688 -14.378906 4.414062 -14.054688 4.40625 -13.671875 L 4.40625 -7.859375 L 13.3125 -7.859375 L 13.3125 -13.671875 C 13.289062 -14.203125 13.054688 -14.597656 12.609375 -14.859375 C 12.390625 -14.972656 12.160156 -15.03125 11.921875 -15.03125 L 11.625 -15.03125 L 11.625 -15.25 L 16.40625 -15.25 L 16.40625 -15.03125 L 16.125 -15.03125 C 15.738281 -15.03125 15.410156 -14.894531 15.140625 -14.625 C 14.878906 -14.351562 14.738281 -14.03125 14.71875 -13.65625 L 14.71875 -1.59375 C 14.738281 -1.21875 14.878906 -0.894531 15.140625 -0.625 C 15.410156 -0.351562 15.738281 -0.21875 16.125 -0.21875 L 16.40625 -0.21875 L 16.40625 0 L 11.625 0 L 11.625 -0.21875 Z M 11.921875 -0.21875 "/></g></g></g><g fill="#000000" fill-opacity="1"><g transform="translate(178.994008, 328.865983)"><g/></g></g><g fill="#000000" fill-opacity="1"><g transform="translate(186.942548, 328.865983)"><g><path d="M 9.125 0.3125 C 6.800781 0.289062 4.914062 -0.441406 3.46875 -1.890625 C 2.03125 -3.347656 1.3125 -5.257812 1.3125 -7.625 C 1.3125 -9.988281 2.03125 -11.898438 3.46875 -13.359375 C 4.914062 -14.816406 6.800781 -15.546875 9.125 -15.546875 C 11.125 -15.546875 12.890625 -15.054688 14.421875 -14.078125 L 14.859375 -11 L 14.65625 -11 C 14.332031 -12.25 13.6875 -13.207031 12.71875 -13.875 C 11.757812 -14.550781 10.5625 -14.890625 9.125 -14.890625 C 7.28125 -14.890625 5.785156 -14.222656 4.640625 -12.890625 C 3.503906 -11.554688 2.9375 -9.800781 2.9375 -7.625 C 2.9375 -5.445312 3.503906 -3.691406 4.640625 -2.359375 C 5.785156 -1.035156 7.28125 -0.363281 9.125 -0.34375 C 10.070312 -0.34375 10.96875 -0.507812 11.8125 -0.84375 C 12.664062 -1.175781 13.410156 -1.644531 14.046875 -2.25 L 14.046875 -6.09375 C 14.046875 -6.414062 13.945312 -6.660156 13.75 -6.828125 C 13.550781 -6.992188 13.28125 -7.078125 12.9375 -7.078125 L 12.59375 -7.078125 L 12.59375 -7.296875 L 16.859375 -7.296875 L 16.859375 -7.078125 L 16.53125 -7.078125 C 16.164062 -7.078125 15.890625 -6.992188 15.703125 -6.828125 C 15.515625 -6.660156 15.425781 -6.414062 15.4375 -6.09375 L 15.4375 -2.5 C 15.0625 -2.007812 14.613281 -1.566406 14.09375 -1.171875 C 13.570312 -0.785156 12.867188 -0.441406 11.984375 -0.140625 C 11.109375 0.160156 10.15625 0.3125 9.125 0.3125 Z M 9.125 0.3125 "/></g></g></g><g fill="#000000" fill-opacity="1"><g transform="translate(206.822948, 328.865983)"><g><path d="M 16.015625 -15.03125 L 15.65625 -15.03125 C 15.351562 -15.03125 15.085938 -14.929688 14.859375 -14.734375 C 14.640625 -14.535156 14.519531 -14.289062 14.5 -14 L 14.5 -5.375 C 14.5 -3.675781 13.960938 -2.300781 12.890625 -1.25 C 11.816406 -0.207031 10.382812 0.3125 8.59375 0.3125 C 6.8125 0.3125 5.363281 -0.207031 4.25 -1.25 C 3.144531 -2.289062 2.59375 -3.660156 2.59375 -5.359375 L 2.59375 -13.9375 C 2.59375 -14.375 2.40625 -14.691406 2.03125 -14.890625 C 1.851562 -14.984375 1.65625 -15.03125 1.4375 -15.03125 L 1.09375 -15.03125 L 1.09375 -15.25 L 5.515625 -15.25 L 5.515625 -15.03125 L 5.15625 -15.03125 C 4.84375 -15.03125 4.578125 -14.929688 4.359375 -14.734375 C 4.140625 -14.535156 4.019531 -14.285156 4 -13.984375 L 4 -5.65625 C 4 -4.070312 4.425781 -2.796875 5.28125 -1.828125 C 6.132812 -0.859375 7.269531 -0.375 8.6875 -0.375 C 10.113281 -0.375 11.269531 -0.832031 12.15625 -1.75 C 13.039062 -2.675781 13.484375 -3.882812 13.484375 -5.375 L 13.484375 -13.984375 C 13.460938 -14.285156 13.34375 -14.535156 13.125 -14.734375 C 12.914062 -14.929688 12.648438 -15.03125 12.328125 -15.03125 L 11.984375 -15.03125 L 11.984375 -15.25 L 16.015625 -15.25 Z M 16.015625 -15.03125 "/></g></g></g><g fill="#000000" fill-opacity="1"><g transform="translate(226.42029, 328.865983)"><g><path d="M 11.484375 -11.046875 C 11.484375 -10.398438 11.351562 -9.800781 11.09375 -9.25 C 10.613281 -8.21875 9.769531 -7.5 8.5625 -7.09375 C 8.132812 -6.957031 7.769531 -6.890625 7.46875 -6.890625 C 6.570312 -6.890625 5.796875 -7.054688 5.140625 -7.390625 L 5.140625 -7.609375 C 6.203125 -7.367188 7.179688 -7.484375 8.078125 -7.953125 C 8.878906 -8.359375 9.425781 -9.023438 9.71875 -9.953125 C 9.800781 -10.242188 9.84375 -10.519531 9.84375 -10.78125 C 9.84375 -11.039062 9.84375 -11.203125 9.84375 -11.265625 C 9.8125 -12.273438 9.539062 -13.082031 9.03125 -13.6875 C 8.53125 -14.289062 7.820312 -14.59375 6.90625 -14.59375 L 4.40625 -14.59375 L 4.40625 -1.59375 C 4.414062 -1.21875 4.554688 -0.894531 4.828125 -0.625 C 5.097656 -0.351562 5.421875 -0.21875 5.796875 -0.21875 L 6.078125 -0.21875 L 6.078125 0 L 1.3125 0 L 1.3125 -0.21875 L 1.59375 -0.21875 C 1.96875 -0.21875 2.289062 -0.351562 2.5625 -0.625 C 2.832031 -0.894531 2.972656 -1.21875 2.984375 -1.59375 L 2.984375 -13.765625 C 2.941406 -14.128906 2.789062 -14.429688 2.53125 -14.671875 C 2.269531 -14.910156 1.957031 -15.03125 1.59375 -15.03125 L 1.328125 -15.03125 L 1.3125 -15.25 L 6.984375 -15.25 C 8.378906 -15.25 9.476562 -14.875 10.28125 -14.125 C 11.082031 -13.375 11.484375 -12.347656 11.484375 -11.046875 Z M 11.484375 -11.046875 "/></g></g></g><g fill="#000000" fill-opacity="1"><g transform="translate(241.488758, 328.865983)"><g><path d="M 12.828125 -13.3125 C 12.828125 -13.65625 12.703125 -13.953125 12.453125 -14.203125 C 12.210938 -14.460938 11.925781 -14.597656 11.59375 -14.609375 L 7.453125 -14.609375 L 7.453125 -1.5625 C 7.460938 -1.1875 7.601562 -0.867188 7.875 -0.609375 C 8.144531 -0.347656 8.46875 -0.21875 8.84375 -0.21875 L 9.125 -0.21875 L 9.125 0 L 4.359375 0 L 4.359375 -0.21875 L 4.640625 -0.21875 C 5.015625 -0.21875 5.335938 -0.347656 5.609375 -0.609375 C 5.878906 -0.867188 6.019531 -1.179688 6.03125 -1.546875 L 6.03125 -14.609375 L 1.890625 -14.609375 C 1.546875 -14.597656 1.253906 -14.460938 1.015625 -14.203125 C 0.773438 -13.953125 0.65625 -13.65625 0.65625 -13.3125 L 0.65625 -12.9375 L 0.4375 -12.921875 L 0.4375 -15.65625 C 0.65625 -15.570312 1.03125 -15.484375 1.5625 -15.390625 C 2.101562 -15.304688 2.597656 -15.265625 3.046875 -15.265625 L 10.40625 -15.265625 C 11.125 -15.265625 11.71875 -15.316406 12.1875 -15.421875 C 12.65625 -15.535156 12.941406 -15.613281 13.046875 -15.65625 L 13.046875 -12.921875 L 12.828125 -12.9375 Z M 12.828125 -13.3125 "/></g></g></g><g fill="#000000" fill-opacity="1"><g transform="translate(257.449935, 328.865983)"><g><path d="M 15.59375 -0.21875 L 15.765625 -0.21875 L 15.765625 0 L 10.859375 0 L 10.859375 -0.21875 L 11.0625 -0.21875 C 11.363281 -0.21875 11.585938 -0.316406 11.734375 -0.515625 C 11.890625 -0.710938 11.96875 -0.894531 11.96875 -1.0625 C 11.96875 -1.238281 11.941406 -1.414062 11.890625 -1.59375 L 10.5 -5.296875 L 4.609375 -5.296875 L 3.15625 -1.5625 C 3.09375 -1.394531 3.0625 -1.226562 3.0625 -1.0625 C 3.0625 -0.894531 3.132812 -0.710938 3.28125 -0.515625 C 3.4375 -0.316406 3.671875 -0.21875 3.984375 -0.21875 L 4.171875 -0.21875 L 4.171875 0 L -0.203125 0 L -0.203125 -0.21875 L 0 -0.21875 C 0.351562 -0.21875 0.703125 -0.332031 1.046875 -0.5625 C 1.398438 -0.800781 1.6875 -1.144531 1.90625 -1.59375 L 6.828125 -13.3125 C 7.367188 -14.488281 7.640625 -15.234375 7.640625 -15.546875 L 7.828125 -15.546875 L 13.671875 -1.59375 C 13.878906 -1.144531 14.15625 -0.800781 14.5 -0.5625 C 14.84375 -0.332031 15.207031 -0.21875 15.59375 -0.21875 Z M 4.875 -5.953125 L 10.234375 -5.953125 L 7.625 -12.9375 Z M 4.875 -5.953125 "/></g></g></g></svg>